
<svg viewBox="0 0 720 820" xmlns="http://www.w3.org/2000/svg" preserveAspectRatio="xMidYMid meet" class="ar-map" role="img" aria-label="Mapa de Argentina con bloques operativos de Crown Point Energy">
  <defs>
    <filter id="softShadow" x="-10%" y="-10%" width="120%" height="120%">
      <feDropShadow dx="0" dy="3" stdDeviation="6" flood-color="#0E1235" flood-opacity="0.12"></feDropShadow>
    </filter>
    <style>
      .cc-country        { fill: #DDE5DF; }
      .cc-stroke         { stroke: #1F2566; }
      .cc-fill-stroke    { fill: #1F2566; stroke: #1F2566; }
      .cc-fill-leader    { fill: rgba(31,37,102,0.45); stroke: none; }
      .cc-amber          { fill: #C9A24A; }
      .cc-green-light    { fill: #8FC65C; }
      .cc-green          { fill: #6CAE52; }
      .cc-teal           { fill: #2FA08A; }
      .cc-teal-dark      { fill: #1A7265; }
      .ar-leader         { stroke: rgba(31,37,102,0.22); stroke-width: 0.7; fill: none; }
      .ar-label          { font-size: 11px; font-weight: 600; fill: #1F2566; font-family: system-ui, sans-serif; }
      .ar-sublabel       { font-size: 9.5px; fill: #667; font-family: system-ui, sans-serif; }
      .ar-hq-label       { font-size: 8.5px; font-weight: 700; letter-spacing: 0.12em; fill: #1F2566; font-family: system-ui, sans-serif; }
      .ar-province text  { font-size: 9px; letter-spacing: 0.18em; fill: rgba(31,37,102,0.32); font-family: system-ui, sans-serif; font-weight: 600; }
      .ar-compass-text   { font-size: 11px; font-weight: 700; fill: rgba(31,37,102,0.45); font-family: system-ui, sans-serif; }
      .ar-legend-title   { font-size: 8px; font-weight: 700; letter-spacing: 0.18em; fill: #1F2566; font-family: system-ui, sans-serif; }
      .ar-legend-text    { font-size: 9.5px; fill: #334; font-family: system-ui, sans-serif; }
    </style>
  </defs>

  
  <g class="ar-country" filter="url(#softShadow)">
    
    <path d="&#xA;      M 295 60&#xA;      C 320 56, 340 64, 348 78&#xA;      L 358 96&#xA;      C 368 110, 378 120, 388 130&#xA;      L 402 150&#xA;      C 414 168, 422 188, 426 208&#xA;      L 426 226&#xA;      C 428 250, 432 270, 436 290&#xA;      L 438 308&#xA;      C 440 326, 436 340, 426 352&#xA;      L 414 366&#xA;      C 400 376, 394 392, 396 410&#xA;      L 402 428&#xA;      C 404 446, 396 460, 386 472&#xA;      L 376 488&#xA;      C 366 504, 354 518, 342 532&#xA;      L 332 550&#xA;      C 322 566, 314 582, 304 598&#xA;      L 294 616&#xA;      C 282 634, 268 650, 252 664&#xA;      L 236 678&#xA;      C 220 690, 208 700, 196 706&#xA;      L 184 712&#xA;      C 174 716, 166 716, 160 712&#xA;      L 152 706&#xA;      C 146 696, 144 684, 144 670&#xA;      L 146 652&#xA;      C 152 632, 158 612, 164 592&#xA;      L 170 572&#xA;      C 176 552, 180 530, 184 510&#xA;      L 188 488&#xA;      C 192 466, 194 444, 192 422&#xA;      L 188 400&#xA;      C 184 378, 180 354, 178 330&#xA;      L 176 308&#xA;      C 176 286, 180 264, 184 242&#xA;      L 188 220&#xA;      C 192 198, 196 178, 200 158&#xA;      L 206 138&#xA;      C 214 118, 224 100, 236 84&#xA;      L 252 70&#xA;      C 268 60, 282 56, 295 60 Z" class="cc-country cc-stroke" stroke-width="1.5" stroke-linejoin="round"></path>

    
    <path d="&#xA;      M 168 740&#xA;      C 188 738, 208 742, 226 750&#xA;      L 244 762&#xA;      L 252 774&#xA;      C 252 784, 240 790, 224 792&#xA;      L 208 792&#xA;      C 192 790, 178 786, 168 778&#xA;      L 160 770&#xA;      C 156 760, 158 750, 168 740 Z" class="cc-country cc-stroke" stroke-width="1.5" stroke-linejoin="round"></path>

    
    <g class="cc-stroke" stroke-width="0.6" opacity="0.2" fill="none">
      <path d="M 198 120 L 392 145"></path>     
      <path d="M 188 180 L 414 200"></path>     
      <path d="M 184 248 L 432 268"></path>     
      <path d="M 184 304 L 438 318"></path>     
      <path d="M 186 360 L 410 378"></path>     
      <path d="M 188 420 L 396 432"></path>     
      <path d="M 188 478 L 380 488"></path>     
      <path d="M 184 532 L 348 542"></path>     
      <path d="M 174 588 L 320 600"></path>     
      <path d="M 162 656 L 268 670"></path>     
    </g>
  </g>

  
  <g class="ar-province">
    <text x="316" y="282" text-anchor="middle">MENDOZA</text>
    <text x="328" y="510" text-anchor="middle">CHUBUT</text>
    <text x="290" y="612" text-anchor="middle">SANTA CRUZ</text>
    <text x="210" y="772" text-anchor="middle">TIERRA DEL FUEGO</text>
    
    <text x="318" y="120" text-anchor="middle" opacity="0.45">SALTA / JUJUY</text>
    <text x="332" y="200" text-anchor="middle" opacity="0.45">CÓRDOBA</text>
    <text x="356" y="408" text-anchor="middle" opacity="0.45">RÍO NEGRO</text>
  </g>

  

  
  <g class="ar-block" data-block="ppc">
    <ellipse cx="280" cy="248" rx="26" ry="14" class="cc-amber" opacity="0.92"></ellipse>
    <line class="ar-leader" x1="306" y1="248" x2="468" y2="248"></line>
    <circle cx="468" cy="248" r="2.5" class="cc-fill-leader"></circle>
    <text x="476" y="245" class="ar-label">Puesto Pozo Cercado Oriental</text>
    <text x="476" y="259" class="ar-sublabel">Cuenca Neuquina · Mendoza</text>
  </g>

  
  <g class="ar-block" data-block="chanares">
    <ellipse cx="262" cy="294" rx="28" ry="14" class="cc-green-light" opacity="0.94"></ellipse>
    <line class="ar-leader" x1="290" y1="294" x2="468" y2="294"></line>
    <circle cx="468" cy="294" r="2.5" class="cc-fill-leader"></circle>
    <text x="476" y="291" class="ar-label">Chañares Herrados</text>
    <text x="476" y="305" class="ar-sublabel">Cuenca Cuyana · Mendoza</text>
  </g>

  
  <g class="ar-block" data-block="cerro">
    <ellipse cx="252" cy="340" rx="30" ry="15" class="cc-green" opacity="0.92"></ellipse>
    <line class="ar-leader" x1="282" y1="340" x2="468" y2="340"></line>
    <circle cx="468" cy="340" r="2.5" class="cc-fill-leader"></circle>
    <text x="476" y="337" class="ar-label">Cerro de Los Leones</text>
    <text x="476" y="351" class="ar-sublabel">Cuenca Neuquina · Mendoza</text>
  </g>

  
  <g class="ar-block" data-block="tordillo">
    <ellipse cx="246" cy="510" rx="30" ry="15" class="cc-green" opacity="0.92"></ellipse>
    <line class="ar-leader" x1="276" y1="510" x2="468" y2="510"></line>
    <circle cx="468" cy="510" r="2.5" class="cc-fill-leader"></circle>
    <text x="476" y="507" class="ar-label">El Tordillo · La Tapera · P. Quiroga</text>
    <text x="476" y="521" class="ar-sublabel">Golfo San Jorge · Chubut</text>
  </g>

  
  <g class="ar-block" data-block="piedra">
    <ellipse cx="234" cy="582" rx="28" ry="14" class="cc-teal" opacity="0.94"></ellipse>
    <line class="ar-leader" x1="262" y1="582" x2="468" y2="582"></line>
    <circle cx="468" cy="582" r="2.5" class="cc-fill-leader"></circle>
    <text x="476" y="579" class="ar-label">Piedra Clavada – Koluel Kaike</text>
    <text x="476" y="593" class="ar-sublabel">Golfo San Jorge · Santa Cruz</text>
  </g>

  
  <g class="ar-block" data-block="tdf">
    <ellipse cx="208" cy="760" rx="34" ry="15" class="cc-teal-dark" opacity="0.95"></ellipse>
    <line class="ar-leader" x1="242" y1="760" x2="468" y2="760"></line>
    <circle cx="468" cy="760" r="2.5" class="cc-fill-leader"></circle>
    <text x="476" y="753" class="ar-label">Río Cullen · Las Violetas</text>
    <text x="476" y="767" class="ar-label">La Angostura</text>
    <text x="476" y="781" class="ar-sublabel">Cuenca Austral · Tierra del Fuego</text>
  </g>

  
  <g class="ar-hq">
    <circle cx="402" cy="300" r="4" class="cc-fill-stroke"></circle>
    <circle cx="402" cy="300" r="11" fill="none" class="cc-stroke" stroke-width="0.8" opacity="0.5"></circle>
    <line x1="406" y1="300" x2="438" y2="282" class="cc-stroke" stroke-width="0.7" opacity="0.7"></line>
    <text x="442" y="280" class="ar-hq-label">HQ · BUENOS AIRES</text>
  </g>

  
  <g transform="translate(96, 78)" class="ar-compass">
    <path d="M 0 -16 L 7 9 L 0 0 L -7 9 Z" class="cc-fill-stroke" opacity="0.55"></path>
    <text x="0" y="26" text-anchor="middle" class="ar-compass-text">N</text>
  </g>

  
  <g transform="translate(40, 120)" class="ar-legend">
    <text x="0" y="0" class="ar-legend-title">BLOQUES OPERATIVOS</text>
    <g transform="translate(0, 20)">
      <rect width="12" height="12" rx="2" class="cc-amber"></rect>
      <text x="22" y="10" class="ar-legend-text">Neuquina Norte</text>
    </g>
    <g transform="translate(0, 40)">
      <rect width="12" height="12" rx="2" class="cc-green-light"></rect>
      <text x="22" y="10" class="ar-legend-text">Cuyana</text>
    </g>
    <g transform="translate(0, 60)">
      <rect width="12" height="12" rx="2" class="cc-green"></rect>
      <text x="22" y="10" class="ar-legend-text">Neuquina / San Jorge N.</text>
    </g>
    <g transform="translate(0, 80)">
      <rect width="12" height="12" rx="2" class="cc-teal"></rect>
      <text x="22" y="10" class="ar-legend-text">Golfo San Jorge S.</text>
    </g>
    <g transform="translate(0, 100)">
      <rect width="12" height="12" rx="2" class="cc-teal-dark"></rect>
      <text x="22" y="10" class="ar-legend-text">Cuenca Austral</text>
    </g>
  </g>
</svg>